<?xml version="1.0" standalone="no"?>
<!DOCTYPE svg PUBLIC "-//W3C//DTD SVG 20010904//EN"
 "http://www.w3.org/TR/2001/REC-SVG-20010904/DTD/svg10.dtd">
<svg version="1.0" xmlns="http://www.w3.org/2000/svg"
 width="512.000000pt" height="512.000000pt" viewBox="0 0 512.000000 512.000000"
 preserveAspectRatio="xMidYMid meet">
<metadata>
Created by potrace 1.14, written by Peter Selinger 2001-2017
</metadata>
<g transform="translate(0.000000,512.000000) scale(0.100000,-0.100000)"
fill="#000000" stroke="none">
<path d="M227 4840 c-64 -18 -138 -70 -171 -120 -59 -89 -55 22 -53 -1735 l2
-1610 22 -45 c37 -74 79 -117 150 -152 l67 -33 404 0 c381 -1 405 0 428 18 13
10 24 25 24 33 0 15 5 16 125 17 75 1 80 0 83 -21 6 -42 33 -46 282 -48 129
-1 241 -2 249 -3 9 -1 11 -9 7 -26 -4 -14 -16 -79 -27 -143 -11 -64 -22 -128
-24 -142 -3 -14 -8 -45 -11 -70 l-6 -45 -97 -1 c-108 -1 -152 -17 -209 -75
-80 -82 -75 -224 12 -310 67 -66 2 -62 1071 -62 955 -1 971 -1 1015 20 145 65
182 245 73 357 -52 54 -93 68 -200 69 -65 2 -94 6 -98 15 -4 12 -37 199 -50
287 -4 22 -11 57 -16 79 -6 21 -8 41 -4 44 3 3 362 7 798 7 436 1 806 5 822
10 44 12 129 71 157 108 13 18 33 50 44 72 19 39 19 77 19 1665 l0 1625 -24
49 c-34 67 -91 122 -159 154 l-57 26 -512 1 c-282 0 -527 -4 -544 -8 -22 -6
-35 -17 -42 -38 l-11 -29 -98 0 c-75 0 -98 3 -98 13 0 8 -12 24 -26 38 l-25
24 -1620 0 c-1410 0 -1627 -2 -1672 -15z"/>
</g>
</svg>
